<?xml version="1.0" encoding="UTF-8" standalone="no"?>
<!-- Created with Inkscape (http://www.inkscape.org/) -->

<svg
   width="64"
   height="46"
   viewBox="0 0 16.933333 12.170833"
   version="1.1"
   id="svg376"
   inkscape:version="1.2.2 (732a01da63, 2022-12-09)"
   sodipodi:docname="site-footer-trees.svg"
   xmlns:inkscape="http://www.inkscape.org/namespaces/inkscape"
   xmlns:sodipodi="http://sodipodi.sourceforge.net/DTD/sodipodi-0.dtd"
   xmlns="http://www.w3.org/2000/svg"
   xmlns:svg="http://www.w3.org/2000/svg">
  <sodipodi:namedview
     id="namedview378"
     pagecolor="#505050"
     bordercolor="#ffffff"
     borderopacity="1"
     inkscape:showpageshadow="0"
     inkscape:pageopacity="0"
     inkscape:pagecheckerboard="1"
     inkscape:deskcolor="#505050"
     inkscape:document-units="mm"
     showgrid="false"
     inkscape:zoom="1.3595725"
     inkscape:cx="61.048601"
     inkscape:cy="189.03001"
     inkscape:window-width="1920"
     inkscape:window-height="1002"
     inkscape:window-x="-8"
     inkscape:window-y="-8"
     inkscape:window-maximized="1"
     inkscape:current-layer="layer1" />
  <defs
     id="defs373" />
  <g
     inkscape:label="Layer 1"
     inkscape:groupmode="layer"
     id="layer1"
     transform="translate(-7.421021,-10.019721)">
    <g
       id="g360"
       style="fill:#ffffff"
       transform="translate(-33.345552,-72.362647)">
      <path
         d="m 48.96889,87.455665 c -0.28991,-0.25358 -2.648903,-0.724083 -2.904803,-2.236083 0.44241,0.0661 0.12029,0.24729 0.50419,0.32438 0.21191,0.0425 0.0507,-0.0789 0.30233,0.0344 l 0.217173,0.1615 c 0.30462,-0.0197 0.4265,-0.0958 0.69352,-0.12858 0.40309,-0.0495 0.3797,0.0974 0.6126,-0.2116 -0.45043,-0.15049 -0.68252,-0.18718 -0.98982,-0.44249 -0.422103,-0.35062 -1.193273,-1.017623 -1.378203,-1.526333 -0.1263,-0.34738 -0.1905,-0.78479 -0.38178,-1.03367 -0.2148,0.1711 -0.39849,0.58409 -0.58053,0.85668 -0.634363,0.950113 -1.017203,1.061623 -1.422083,1.561123 -0.2347,0.28949 -0.0916,0.17589 -0.40379,0.33979 -0.28201,0.1481 -0.25389,0.0944 -0.36153,0.38591 0.45883,0.12558 0.32622,0.1344 0.55443,0.36258 0.5093,-0.096 -0.083,-0.0901 0.74059,-0.17529 0.421283,-0.0436 0.338913,-0.14739 0.606983,-0.31489 -0.0759,0.28081 -0.24048,0.61598 -0.391793,0.81879 -0.44708,0.599513 -1.78128,0.879413 -1.94529,1.581893 0.19251,0.0827 0.10488,-0.0209 0.30039,0.0979 0.2515,0.15289 -0.0984,0.0393 0.2412,0.18172 0.20302,-0.0707 0.42471,-0.22892 0.54772,-0.2563 0.26628,-0.0594 0.4046,0.0177 0.66689,-0.15233 0.436003,-0.28268 0.13169,-0.2141 0.963513,-0.59619 -0.28103,0.8933 -0.928623,1.29431 -1.615123,1.81031 -1.5493,1.164493 -1.965683,0.725103 -2.080693,1.337603 0.23919,0.0278 0.438403,-0.0194 0.667813,0.0576 0.27189,0.0914 0.15109,0.15382 0.47678,0.2309 1.04161,-0.65349 0.27541,-0.2377 1.2688,-0.2256 0.46041,-0.27249 0.46002,-0.7861 1.080813,-0.6555 0.0203,0.3018 -0.13149,0.42002 -0.33091,0.55841 -1.244183,0.8629 -1.920883,1.7423 -3.233286,2.290093 -0.34791,0.14531 -0.40852,0.10711 -0.4693,0.47139 0.2341,0.15391 0.33309,0.0482 0.65338,0.0179 l 0.0602,0.43017 c 0.698683,0.0387 0.508883,-0.20958 0.895703,-0.34907 0.30329,0.17039 0.0813,0.23689 0.63768,0.2062 0.47639,-0.53732 0.61511,-0.002 1.05301,-0.4801 0.16679,-0.18221 0.293023,-0.6502 0.447393,-0.894323 0.0265,-0.0419 0.0711,-0.0983 0.0979,-0.13191 l 0.0777,-0.0798 c 0.24828,0.499503 0.0949,1.958523 0.0306,2.855533 h 1.17891 c -0.0234,-0.9846 -0.26969,-2.529103 -0.13571,-2.886113 0.57711,0.17469 -0.0521,1.106913 0.92191,1.060913 l 0.20299,-0.5363 c 0.231603,0.13519 0.174913,0.31959 0.312323,0.51308 0.14837,0.2086 0.29689,0.16249 0.51399,0.35783 0.42902,-0.19361 -0.0317,-0.0927 0.3337,-0.31641 0.0732,0.0691 0.0279,0.0391 0.0971,0.13519 0.52398,0.7276 0.50708,0.0535 0.50747,0.0521 0.31182,-0.0195 0.68872,0.0349 0.938323,0.002 0.19928,-0.0262 0.18707,-0.0537 0.39511,-0.0624 0.43649,-0.0182 0.27848,0.0222 0.40079,-0.0801 -0.6501,-0.12477 -0.966613,-0.21029 -1.458603,-0.5468 -0.68622,-0.469093 -1.6159,-0.635783 -2.525223,-1.504003 -0.1802,-0.17198 -0.83858,-0.50158 -0.77738,-1.08169 0.60847,-0.242883 0.48049,0.11501 1.00821,0.25591 0.699873,0.1868 0.309773,0.27958 0.649073,0.65849 0.39631,-0.109 0.12531,-0.25019 0.5176,-0.24609 1.4388,0.0148 0.926,0.4912 1.809613,0.112 -0.161893,-0.26052 -0.794993,-0.64262 -1.028703,-0.75872 -0.40129,-0.19939 -0.81548,-0.375493 -1.23469,-0.559993 -0.808113,-0.35589 -1.551203,-0.95141 -1.662013,-1.88751 0.22599,0.0478 0.21449,0.12062 0.39,0.1941 0.2456,0.10301 0.2819,0.0211 0.4712,0.11571 0.3175,0.15861 0.0245,0.3381 0.685703,0.49618 l 0.20489,-0.64678 c 0.42139,0.0975 0.10421,0.24719 0.68411,0.25301 0.28751,0.003 0.50228,-0.0858 0.6889,-0.17642"
         style="fill:#ffffff;fill-opacity:1;fill-rule:evenodd;stroke:none;stroke-width:0.352778"
         id="path178" />
      <path
         d="m 56.314689,89.192385 c -0.22529,-0.1972 -2.059103,-0.56299 -2.257993,-1.73841 0.34382,0.0515 0.0935,0.1924 0.39201,0.2522 0.1646,0.0331 0.0394,-0.0613 0.23487,0.0268 l 0.16891,0.12548 c 0.236823,-0.0153 0.331513,-0.0744 0.539013,-0.0999 0.31348,-0.0384 0.29521,0.0757 0.47618,-0.1645 -0.35009,-0.11698 -0.53047,-0.14548 -0.76937,-0.34399 -0.328013,-0.27259 -0.927593,-0.791003 -1.071423,-1.186393 -0.0982,-0.27009 -0.1481,-0.6102 -0.29669,-0.80359 -0.167,0.13299 -0.3097,0.45399 -0.45131,0.6659 -0.49307,0.73858 -0.79061,0.82529 -1.105393,1.213593 -0.18249,0.225 -0.0712,0.1367 -0.31401,0.26409 -0.21918,0.11511 -0.19731,0.0735 -0.28088,0.2999 0.35659,0.0976 0.25347,0.10452 0.43088,0.2819 0.396003,-0.0745 -0.0645,-0.0699 0.575703,-0.13621 0.32741,-0.0339 0.26349,-0.11458 0.47191,-0.24479 -0.059,0.2183 -0.187,0.47883 -0.30459,0.63652 -0.34752,0.46598 -1.384613,0.68368 -1.512213,1.229683 0.14961,0.0642 0.0815,-0.0163 0.2335,0.0761 0.19562,0.11888 -0.0765,0.0305 0.18761,0.14128 0.15769,-0.0551 0.32999,-0.17801 0.4258,-0.19932 0.20691,-0.0462 0.314403,0.0138 0.518303,-0.118493 0.33888,-0.21957 0.10238,-0.1663 0.74888,-0.46327 -0.2183,0.694373 -0.72178,1.006083 -1.255403,1.407093 -1.20438,0.9053 -1.52798,0.5637 -1.61748,1.03977 0.18588,0.0217 0.34078,-0.015 0.51907,0.0449 0.21153,0.071 0.11741,0.11959 0.3707,0.1795 0.80981,-0.508 0.2141,-0.18479 0.98641,-0.17541 0.357823,-0.21177 0.357393,-0.61108 0.840103,-0.50948 0.0157,0.23449 -0.1022,0.32639 -0.25717,0.43388 -0.967223,0.67092 -1.493213,1.354533 -2.513513,1.780333 -0.2703,0.113 -0.31761,0.0832 -0.36481,0.3665 0.182,0.11949 0.25891,0.0375 0.5079,0.0138 l 0.0469,0.3344 c 0.5431,0.0301 0.39549,-0.16281 0.6961,-0.27133 0.23579,0.13251 0.0634,0.18412 0.49579,0.16041 0.37038,-0.41769 0.4783,-0.002 0.818483,-0.37331 0.12982,-0.14167 0.22789,-0.50539 0.3478,-0.69518 0.0206,-0.0326 0.0553,-0.0764 0.0762,-0.10248 l 0.0604,-0.0621 c 0.17889,0.36001 0.0895,1.36053 0.0356,2.06012 h 0.89881 c -0.0368,-0.76281 -0.19688,-1.8251 -0.0997,-2.08389 0.44869,0.13578 -0.0405,0.86049 0.71659,0.82479 l 0.1578,-0.41691 c 0.18009,0.10509 0.13589,0.24839 0.242923,0.39881 0.11529,0.16217 0.23069,0.1263 0.39949,0.2782 0.33352,-0.15053 -0.0246,-0.0721 0.2594,-0.24592 0.0568,0.0536 0.0217,0.0303 0.0755,0.10502 0.40732,0.56558 0.3942,0.0415 0.39451,0.0405 0.24229,-0.0152 0.53531,0.027 0.72941,0.002 0.1549,-0.0203 0.14538,-0.0417 0.30698,-0.0485 0.33941,-0.0142 0.2165,0.0173 0.31161,-0.0622 -0.50539,-0.097 -0.75131,-0.16358 -1.13379,-0.4251 -0.5334,-0.3647 -1.2561,-0.49421 -1.963003,-1.169213 -0.14012,-0.1337 -0.65189,-0.38989 -0.60431,-0.84078 0.47312,-0.18891 0.37349,0.0894 0.7837,0.1989 0.544093,0.14527 0.24098,0.21728 0.504613,0.51188 0.30808,-0.0847 0.0974,-0.19438 0.40238,-0.19138 1.11852,0.0115 0.71981,0.38188 1.4067,0.0872 -0.1258,-0.2026 -0.61799,-0.49954 -0.79971,-0.58981 -0.31189,-0.15501 -0.63387,-0.29193 -0.95977,-0.4353 -0.628223,-0.27671 -1.205723,-0.73959 -1.292013,-1.467303 0.17579,0.0371 0.16669,0.0937 0.30321,0.15088 0.19089,0.08 0.21908,0.0164 0.36629,0.0899 0.24681,0.1233 0.0191,0.262893 0.533013,0.385803 l 0.15939,-0.502923 c 0.32748,0.0759 0.0809,0.19219 0.53171,0.19671 0.22348,0.002 0.39038,-0.0666 0.53548,-0.13699"
         style="fill:#ffffff;fill-opacity:1;fill-rule:evenodd;stroke:none;stroke-width:0.352778"
         id="path180" />
    </g>
  </g>
</svg>
