<?xml version="1.0" encoding="UTF-8" standalone="no"?>
<!-- Created with Inkscape (http://www.inkscape.org/) -->

<svg
   width="182"
   height="110"
   viewBox="0 0 48.154166 29.104169"
   version="1.1"
   id="svg329"
   inkscape:version="1.2.2 (732a01da63, 2022-12-09)"
   sodipodi:docname="thce-emblem-inv.svg"
   xmlns:inkscape="http://www.inkscape.org/namespaces/inkscape"
   xmlns:sodipodi="http://sodipodi.sourceforge.net/DTD/sodipodi-0.dtd"
   xmlns="http://www.w3.org/2000/svg"
   xmlns:svg="http://www.w3.org/2000/svg">
  <sodipodi:namedview
     id="namedview331"
     pagecolor="#505050"
     bordercolor="#ffffff"
     borderopacity="1"
     inkscape:showpageshadow="0"
     inkscape:pageopacity="0"
     inkscape:pagecheckerboard="1"
     inkscape:deskcolor="#505050"
     inkscape:document-units="mm"
     showgrid="false"
     inkscape:zoom="1.9678132"
     inkscape:cx="55.899616"
     inkscape:cy="56.915972"
     inkscape:window-width="1920"
     inkscape:window-height="1002"
     inkscape:window-x="-8"
     inkscape:window-y="-8"
     inkscape:window-maximized="1"
     inkscape:current-layer="layer1" />
  <defs
     id="defs326" />
  <g
     inkscape:label="Layer 1"
     inkscape:groupmode="layer"
     id="layer1"
     transform="translate(-80.432641,-168.19122)">
    <g
       id="g468"
       style="clip-rule:evenodd;fill-rule:evenodd;image-rendering:optimizeQuality;shape-rendering:geometricPrecision;text-rendering:geometricPrecision"
       transform="matrix(0.01,0,0,0.01,-44.231799,87.781483)">
      <path
         class="fil0"
         d="m 15653,9192 c -507,-690 -265,-365 -755,-1011 -136,183 -727,978 -774,925 l -164,-235 c -970,1356 -423,647 -1402,2018 l 1828,-4 c 888,0 1781,-1 2669,-5 -3,-97 -26,-651 14,-655 l 126,-1 c -534,-678 -277,-352 -812,-1031 -517,675 -282,368 -771,1009 570,-7 287,-1 932,-21 33,0 60,26 60,60 0,33 -27,60 -60,60 -1294,-41 -1244,177 -610,-624 579,-731 321,-734 889,6 326,425 557,541 394,567 l -1,1 v -1 c -30,5 -73,7 -130,7 1,106 11,688 -17,690 0,0 -4590,14 -4602,-8 -24,-47 737,-1062 738,-1064 l 737,-1056 c 40,-45 149,144 204,230 996,-1309 507,-1260 1601,70 21,26 16,63 -10,84 -26,20 -64,15 -84,-11 z"
         id="path7"
         style="fill:#ffffff" />
      <polygon
         class="fil1"
         points="14878,10727 15781,9583 15537,9285 14897,8463 14136,9441 13960,9193 12877,10727 "
         id="polygon9"
         style="fill:#226f2b" />
      <path
         class="fil0"
         d="m 14217,10122 c -25,-22 -226,-62 -248,-191 38,6 10,21 43,28 18,4 5,-7 26,3 l 19,14 c 26,-2 36,-8 59,-11 34,-5 32,8 52,-18 -38,-13 -58,-16 -84,-38 -36,-30 -102,-87 -118,-130 -11,-30 -16,-67 -33,-89 -18,15 -34,50 -49,73 -54,82 -87,91 -122,134 -20,24 -7,15 -34,29 -24,12 -22,8 -31,33 39,10 28,11 47,31 44,-9 -7,-8 64,-15 36,-4 29,-13 51,-27 -6,24 -20,52 -33,70 -38,51 -152,75 -166,135 16,7 9,-2 26,8 21,13 -9,3 20,16 18,-6 36,-20 47,-22 23,-5 34,1 57,-13 37,-24 11,-19 82,-51 -24,76 -79,110 -138,154 -132,100 -168,62 -177,114 20,3 37,-1 57,5 23,8 13,14 40,20 89,-56 24,-20 109,-19 39,-23 39,-67 92,-56 2,26 -11,36 -28,48 -107,73 -164,148 -276,195 -30,12 -35,9 -40,40 20,13 28,4 55,2 l 6,37 c 59,3 43,-18 76,-30 26,14 7,20 54,17 41,-46 53,0 90,-41 15,-15 25,-55 38,-76 3,-4 7,-8 9,-11 l 6,-7 c 22,43 9,167 3,244 h 101 c -2,-84 -23,-216 -12,-247 49,15 -4,95 79,91 l 17,-46 c 20,12 15,27 27,44 12,18 25,14 44,30 36,-16 -3,-7 28,-27 6,6 3,4 8,12 45,62 44,5 44,4 26,-1 59,3 80,1 17,-3 16,-5 34,-6 37,-1 23,2 34,-7 -56,-10 -83,-17 -125,-46 -58,-40 -138,-54 -215,-129 -16,-14 -72,-42 -67,-92 52,-21 41,10 86,22 60,16 27,24 56,56 34,-9 11,-21 44,-21 123,1 79,42 154,10 -13,-23 -67,-55 -87,-65 -35,-17 -70,-32 -106,-48 -69,-30 -132,-81 -142,-161 20,4 19,10 34,17 21,8 24,1 40,9 27,14 2,29 58,43 l 18,-55 c 36,8 9,21 58,21 25,0 43,-7 59,-15 z"
         id="path23"
         style="fill:#ffffff" />
      <path
         class="fil0"
         d="m 14844,10270 c -19,-16 -176,-48 -193,-148 30,4 8,16 34,22 14,2 3,-6 20,2 l 14,11 c 21,-2 29,-7 46,-9 27,-3 26,6 41,-14 -30,-10 -45,-12 -66,-29 -28,-24 -79,-68 -91,-102 -9,-23 -13,-52 -25,-68 -15,11 -27,38 -39,57 -42,63 -67,70 -94,103 -16,19 -6,12 -27,23 -19,10 -17,6 -24,25 30,9 22,9 37,24 33,-6 -6,-6 49,-11 28,-3 22,-10 40,-21 -5,18 -16,41 -26,54 -30,40 -118,59 -129,105 13,6 7,-1 20,7 17,10 -7,2 16,12 13,-5 28,-16 36,-17 18,-4 27,1 45,-10 28,-19 8,-15 63,-40 -18,59 -61,86 -107,120 -102,77 -130,48 -138,89 16,2 29,-1 45,4 18,6 10,10 31,15 69,-43 18,-16 84,-15 31,-18 31,-52 72,-43 1,20 -9,27 -22,37 -82,57 -127,115 -214,152 -23,9 -27,7 -32,31 16,10 23,3 44,1 l 4,29 c 46,2 34,-14 59,-24 20,12 6,16 43,14 31,-36 40,0 69,-32 12,-12 20,-43 30,-59 2,-3 5,-7 7,-9 l 5,-5 c 15,31 7,116 3,176 h 77 c -4,-65 -17,-156 -9,-178 38,11 -3,73 61,70 l 14,-35 c 15,9 11,21 20,34 10,14 20,10 34,23 29,-12 -2,-6 23,-21 4,5 1,3 6,9 35,49 34,4 34,4 20,-1 45,2 62,0 13,-2 12,-4 26,-4 29,-1 19,1 27,-5 -43,-9 -64,-14 -97,-37 -46,-31 -107,-42 -168,-100 -11,-11 -55,-33 -51,-71 40,-16 32,7 67,17 46,12 20,18 43,43 26,-7 8,-16 34,-16 96,1 62,33 120,7 -10,-17 -52,-42 -68,-50 -27,-13 -54,-25 -82,-37 -54,-24 -103,-63 -110,-125 15,3 14,8 26,13 16,6 18,1 31,7 21,11 2,23 45,33 l 14,-43 c 28,7 7,17 45,17 20,0 34,-6 46,-12 z"
         id="path25"
         style="fill:#ffffff" />
      <path
         class="fil0"
         d="m 16431,10457 -139,-9 -17,215 v 0 c 0,0 0,1 0,1 -33,31 -11,-119 -11,-119 -12,-174 -41,-132 167,-147 16,0 29,14 29,30 0,16 -13,29 -29,29 z"
         id="path27"
         style="fill:#ffffff" />
    </g>
  </g>
</svg>
